<svg width="228" height="72" viewBox="0 0 228 72" fill="none" xmlns="http://www.w3.org/2000/svg">
<g clip-path="url(#clip0_12_27)">
<path d="M9 36C9 38.3869 9.94821 40.6761 11.636 42.364C13.3239 44.0518 15.6131 45 18 45C20.3869 45 22.6761 44.0518 24.364 42.364C26.0518 40.6761 27 38.3869 27 36C27 33.6131 26.0518 31.3239 24.364 29.636C22.6761 27.9482 20.3869 27 18 27C15.6131 27 13.3239 27.9482 11.636 29.636C9.94821 31.3239 9 33.6131 9 36Z" stroke="#E4E4E7" stroke-width="2" stroke-linecap="round" stroke-linejoin="round"/>
<path d="M45 36C45 38.3869 45.9482 40.6761 47.636 42.364C49.3239 44.0518 51.6131 45 54 45C56.3869 45 58.6761 44.0518 60.364 42.364C62.0518 40.6761 63 38.3869 63 36C63 33.6131 62.0518 31.3239 60.364 29.636C58.6761 27.9482 56.3869 27 54 27C51.6131 27 49.3239 27.9482 47.636 29.636C45.9482 31.3239 45 33.6131 45 36Z" stroke="#E4E4E7" stroke-width="2" stroke-linecap="round" stroke-linejoin="round"/>
<path d="M9.00001 36C8.55696 32.6272 9.47228 29.2376 11.6559 26.1645C13.8396 23.0914 17.2164 20.4407 21.4541 18.4732C25.6918 16.5057 30.6445 15.2891 35.825 14.9431C41.0055 14.5972 46.2353 15.1337 51 16.5" stroke="#E4E4E7" stroke-width="2" stroke-linecap="round" stroke-linejoin="round"/>
<path d="M63 36C63.4431 39.3728 62.5277 42.7624 60.3441 45.8355C58.1604 48.9086 54.7836 51.5593 50.5459 53.5268C46.3082 55.4943 41.3555 56.7109 36.175 57.0569C30.9945 57.4028 25.7647 56.8663 21 55.5" stroke="#E4E4E7" stroke-width="2" stroke-linecap="round" stroke-linejoin="round"/>
</g>
<path d="M84.808 27.072L76.06 48.816C75.964 49.056 75.832 49.236 75.664 49.356C75.496 49.476 75.304 49.536 75.088 49.536C74.752 49.536 74.5 49.452 74.332 49.284C74.164 49.092 74.068 48.864 74.044 48.6C74.02 48.48 74.032 48.336 74.08 48.168L83.584 24.912C83.704 24.648 83.848 24.468 84.016 24.372C84.208 24.252 84.424 24.192 84.664 24.192C84.904 24.192 85.108 24.264 85.276 24.408C85.468 24.528 85.612 24.696 85.708 24.912L95.176 48.06C95.224 48.204 95.248 48.348 95.248 48.492C95.248 48.828 95.14 49.092 94.924 49.284C94.708 49.452 94.456 49.536 94.168 49.536C93.928 49.536 93.712 49.476 93.52 49.356C93.352 49.212 93.22 49.032 93.124 48.816L84.16 26.928L84.808 27.072ZM78.148 42.228L79.048 40.104H90.208L90.64 42.228H78.148ZM98.1086 46.584C97.9166 46.296 97.8206 46.02 97.8206 45.756C97.8446 45.468 98.0006 45.24 98.2886 45.072C98.4806 44.904 98.6966 44.832 98.9366 44.856C99.2006 44.88 99.4406 45 99.6566 45.216C100.305 46.056 101.085 46.74 101.997 47.268C102.933 47.772 104.037 48.024 105.309 48.024C105.981 48.024 106.641 47.916 107.289 47.7C107.961 47.46 108.513 47.112 108.945 46.656C109.377 46.176 109.593 45.576 109.593 44.856C109.593 44.112 109.377 43.512 108.945 43.056C108.513 42.6 107.949 42.24 107.253 41.976C106.581 41.712 105.861 41.484 105.093 41.292C104.277 41.076 103.485 40.836 102.717 40.572C101.949 40.284 101.265 39.936 100.665 39.528C100.089 39.096 99.6206 38.58 99.2606 37.98C98.9006 37.38 98.7206 36.648 98.7206 35.784C98.7206 34.776 98.9966 33.888 99.5486 33.12C100.101 32.352 100.845 31.752 101.781 31.32C102.741 30.888 103.821 30.672 105.021 30.672C105.621 30.672 106.269 30.756 106.965 30.924C107.661 31.068 108.345 31.32 109.017 31.68C109.689 32.04 110.289 32.532 110.817 33.156C111.033 33.372 111.141 33.624 111.141 33.912C111.141 34.176 111.021 34.416 110.781 34.632C110.589 34.776 110.361 34.848 110.097 34.848C109.857 34.848 109.653 34.752 109.485 34.56C108.909 33.912 108.225 33.42 107.433 33.084C106.641 32.748 105.789 32.58 104.877 32.58C104.181 32.58 103.521 32.7 102.897 32.94C102.297 33.156 101.793 33.492 101.385 33.948C100.977 34.404 100.773 35.004 100.773 35.748C100.821 36.444 101.061 37.008 101.493 37.44C101.949 37.872 102.537 38.232 103.257 38.52C104.001 38.808 104.829 39.072 105.741 39.312C106.509 39.504 107.241 39.732 107.937 39.996C108.657 40.26 109.281 40.596 109.809 41.004C110.361 41.388 110.793 41.88 111.105 42.48C111.441 43.08 111.609 43.836 111.609 44.748C111.609 45.804 111.309 46.716 110.709 47.484C110.133 48.252 109.353 48.84 108.369 49.248C107.385 49.656 106.293 49.86 105.093 49.86C103.797 49.86 102.537 49.608 101.313 49.104C100.113 48.6 99.0446 47.76 98.1086 46.584ZM114.84 31.176H123.228C123.516 31.176 123.756 31.284 123.948 31.5C124.14 31.692 124.236 31.932 124.236 32.22C124.236 32.484 124.14 32.712 123.948 32.904C123.756 33.096 123.516 33.192 123.228 33.192H114.84C114.552 33.192 114.3 33.096 114.084 32.904C113.892 32.688 113.796 32.448 113.796 32.184C113.796 31.896 113.892 31.656 114.084 31.464C114.3 31.272 114.552 31.176 114.84 31.176ZM118.548 26.1C118.86 26.1 119.112 26.208 119.304 26.424C119.52 26.64 119.628 26.892 119.628 27.18V45.252C119.628 45.924 119.712 46.428 119.88 46.764C120.072 47.1 120.312 47.328 120.6 47.448C120.888 47.544 121.176 47.592 121.464 47.592C121.656 47.592 121.824 47.568 121.968 47.52C122.136 47.448 122.316 47.412 122.508 47.412C122.724 47.412 122.904 47.496 123.048 47.664C123.216 47.832 123.3 48.048 123.3 48.312C123.3 48.648 123.108 48.936 122.724 49.176C122.34 49.392 121.884 49.5 121.356 49.5C121.14 49.5 120.816 49.488 120.384 49.464C119.952 49.416 119.508 49.284 119.052 49.068C118.596 48.828 118.212 48.42 117.9 47.844C117.612 47.268 117.468 46.44 117.468 45.36V27.18C117.468 26.892 117.564 26.64 117.756 26.424C117.972 26.208 118.236 26.1 118.548 26.1ZM129.307 49.5C128.971 49.5 128.707 49.392 128.515 49.176C128.323 48.96 128.227 48.708 128.227 48.42V32.292C128.227 32.004 128.323 31.752 128.515 31.536C128.731 31.32 128.995 31.212 129.307 31.212C129.619 31.212 129.871 31.32 130.063 31.536C130.279 31.752 130.387 32.004 130.387 32.292V37.692L129.847 37.8C129.919 36.96 130.123 36.132 130.459 35.316C130.819 34.476 131.299 33.708 131.899 33.012C132.499 32.316 133.207 31.752 134.023 31.32C134.863 30.888 135.799 30.672 136.831 30.672C137.263 30.672 137.683 30.768 138.091 30.96C138.499 31.128 138.703 31.416 138.703 31.824C138.703 32.184 138.607 32.46 138.415 32.652C138.223 32.844 137.995 32.94 137.731 32.94C137.515 32.94 137.275 32.88 137.011 32.76C136.771 32.64 136.447 32.58 136.039 32.58C135.367 32.58 134.695 32.784 134.023 33.192C133.351 33.576 132.739 34.104 132.187 34.776C131.635 35.448 131.191 36.204 130.855 37.044C130.543 37.86 130.387 38.688 130.387 39.528V48.42C130.387 48.708 130.279 48.96 130.063 49.176C129.847 49.392 129.595 49.5 129.307 49.5ZM158.406 40.284C158.406 42.108 158.01 43.752 157.218 45.216C156.426 46.656 155.346 47.796 153.978 48.636C152.61 49.452 151.05 49.86 149.298 49.86C147.594 49.86 146.046 49.452 144.654 48.636C143.286 47.796 142.194 46.656 141.378 45.216C140.586 43.752 140.19 42.108 140.19 40.284C140.19 38.436 140.586 36.792 141.378 35.352C142.194 33.912 143.286 32.772 144.654 31.932C146.046 31.092 147.594 30.672 149.298 30.672C151.05 30.672 152.61 31.092 153.978 31.932C155.346 32.772 156.426 33.912 157.218 35.352C158.01 36.792 158.406 38.436 158.406 40.284ZM156.246 40.284C156.246 38.82 155.946 37.524 155.346 36.396C154.746 35.244 153.918 34.344 152.862 33.696C151.83 33.024 150.642 32.688 149.298 32.688C148.002 32.688 146.826 33.024 145.77 33.696C144.714 34.344 143.874 35.244 143.25 36.396C142.65 37.524 142.35 38.82 142.35 40.284C142.35 41.748 142.65 43.044 143.25 44.172C143.874 45.3 144.714 46.2 145.77 46.872C146.826 47.52 148.002 47.844 149.298 47.844C150.642 47.844 151.83 47.52 152.862 46.872C153.918 46.2 154.746 45.3 155.346 44.172C155.946 43.044 156.246 41.748 156.246 40.284ZM177.468 47.376C177.756 47.376 178.008 47.484 178.224 47.7C178.44 47.892 178.548 48.132 178.548 48.42C178.548 48.732 178.44 48.996 178.224 49.212C178.008 49.404 177.756 49.5 177.468 49.5H164.616C164.304 49.5 164.04 49.392 163.824 49.176C163.632 48.96 163.536 48.708 163.536 48.42V25.38C163.536 25.092 163.644 24.84 163.86 24.624C164.076 24.408 164.352 24.3 164.688 24.3C164.976 24.3 165.228 24.408 165.444 24.624C165.684 24.84 165.804 25.092 165.804 25.38V47.988L165.12 47.376H177.468ZM184.245 48.42C184.245 48.708 184.137 48.96 183.921 49.176C183.705 49.392 183.453 49.5 183.165 49.5C182.853 49.5 182.589 49.392 182.373 49.176C182.181 48.96 182.085 48.708 182.085 48.42V31.86C182.085 31.572 182.181 31.32 182.373 31.104C182.589 30.888 182.853 30.78 183.165 30.78C183.477 30.78 183.729 30.888 183.921 31.104C184.137 31.32 184.245 31.572 184.245 31.86V48.42ZM183.165 28.368C182.661 28.368 182.277 28.26 182.013 28.044C181.773 27.804 181.653 27.468 181.653 27.036V26.676C181.653 26.244 181.785 25.92 182.049 25.704C182.337 25.464 182.721 25.344 183.201 25.344C183.657 25.344 184.005 25.464 184.245 25.704C184.509 25.92 184.641 26.244 184.641 26.676V27.036C184.641 27.468 184.509 27.804 184.245 28.044C184.005 28.26 183.645 28.368 183.165 28.368ZM198.532 30.672C200.116 30.672 201.376 30.996 202.312 31.644C203.272 32.268 203.956 33.132 204.364 34.236C204.796 35.316 205.012 36.516 205.012 37.836V48.42C205.012 48.708 204.904 48.96 204.688 49.176C204.472 49.392 204.22 49.5 203.932 49.5C203.596 49.5 203.332 49.392 203.14 49.176C202.948 48.96 202.852 48.708 202.852 48.42V37.944C202.852 36.984 202.696 36.108 202.384 35.316C202.072 34.524 201.556 33.888 200.836 33.408C200.14 32.928 199.216 32.688 198.064 32.688C197.032 32.688 196.048 32.928 195.112 33.408C194.2 33.888 193.456 34.524 192.88 35.316C192.304 36.108 192.016 36.984 192.016 37.944V48.42C192.016 48.708 191.908 48.96 191.692 49.176C191.476 49.392 191.224 49.5 190.936 49.5C190.6 49.5 190.336 49.392 190.144 49.176C189.952 48.96 189.856 48.708 189.856 48.42V32.292C189.856 32.004 189.952 31.752 190.144 31.536C190.36 31.32 190.624 31.212 190.936 31.212C191.248 31.212 191.5 31.32 191.692 31.536C191.908 31.752 192.016 32.004 192.016 32.292V35.316L191.188 36.612C191.236 35.844 191.476 35.112 191.908 34.416C192.364 33.696 192.94 33.06 193.636 32.508C194.332 31.932 195.1 31.488 195.94 31.176C196.804 30.84 197.668 30.672 198.532 30.672ZM211.964 49.5C211.652 49.5 211.388 49.392 211.172 49.176C210.98 48.96 210.884 48.708 210.884 48.42V23.94C210.884 23.652 210.98 23.4 211.172 23.184C211.388 22.968 211.652 22.86 211.964 22.86C212.276 22.86 212.528 22.968 212.72 23.184C212.936 23.4 213.044 23.652 213.044 23.94V48.42C213.044 48.708 212.936 48.96 212.72 49.176C212.528 49.392 212.276 49.5 211.964 49.5ZM224.204 31.032C224.468 31.032 224.708 31.152 224.924 31.392C225.14 31.608 225.248 31.848 225.248 32.112C225.248 32.424 225.116 32.7 224.852 32.94L212.756 43.236L212.648 40.68L223.448 31.392C223.664 31.152 223.916 31.032 224.204 31.032ZM224.492 49.5C224.18 49.5 223.916 49.368 223.7 49.104L215.492 40.392L217.112 38.916L225.248 47.592C225.464 47.832 225.572 48.108 225.572 48.42C225.572 48.756 225.44 49.02 225.176 49.212C224.912 49.404 224.684 49.5 224.492 49.5Z" fill="#E4E4E7"/>
<defs>
<clipPath id="clip0_12_27">
<rect width="72" height="72" fill="#E4E4E7"/>
</clipPath>
</defs>
</svg>
